<svg width="172" height="30" viewBox="0 0 172 30" fill="none" xmlns="http://www.w3.org/2000/svg">
<path d="M0.799988 2.76C0.799988 2.25333 0.986655 1.84 1.35999 1.52C1.73332 1.17333 2.18665 1 2.71999 1H20.44C20.44 2.12 20.2133 2.94667 19.76 3.48C19.3067 4.01333 18.6 4.28 17.64 4.28H4.55999V13.24H15.76C15.76 14.36 15.5333 15.1867 15.08 15.72C14.6267 16.2533 13.9333 16.52 13 16.52H4.55999V25.72H18.48C19.4133 25.72 20.1067 25.9867 20.56 26.52C21.0133 27.0533 21.24 27.88 21.24 29H2.71999C2.18665 29 1.73332 28.84 1.35999 28.52C0.986655 28.1733 0.799988 27.7467 0.799988 27.24V2.76Z" fill="#1A560E"/>
<path d="M35.2022 29.36C32.9622 29.36 30.9622 28.9467 29.2022 28.12C27.4422 27.2667 26.0688 26.0933 25.0822 24.6C24.1222 23.08 23.6422 21.36 23.6422 19.44V10.48C23.6422 8.56 24.1222 6.85333 25.0822 5.36C26.0688 3.86667 27.4288 2.70667 29.1622 1.88C30.8955 1.05333 32.8822 0.639999 35.1222 0.639999C37.3622 0.639999 39.3488 1 41.0822 1.72C42.8155 2.41333 44.1622 3.38667 45.1222 4.64C46.1088 5.89333 46.6022 7.33333 46.6022 8.96C46.6022 9.76 46.3355 10.3867 45.8022 10.84C45.2688 11.2933 44.5622 11.52 43.6822 11.52C43.4955 11.52 43.2155 11.4933 42.8422 11.44C42.8955 11.12 42.9222 10.6133 42.9222 9.92C42.9222 8.77333 42.5888 7.74667 41.9222 6.84C41.2822 5.93333 40.3622 5.22667 39.1622 4.72C37.9888 4.21333 36.6422 3.96 35.1222 3.96C33.6288 3.96 32.2955 4.24 31.1222 4.8C29.9488 5.33333 29.0288 6.10667 28.3622 7.12C27.7222 8.10667 27.4022 9.22667 27.4022 10.48V19.44C27.4022 20.72 27.7222 21.8667 28.3622 22.88C29.0288 23.8667 29.9488 24.64 31.1222 25.2C32.3222 25.76 33.6822 26.04 35.2022 26.04C36.7488 26.04 38.1222 25.7867 39.3222 25.28C40.5222 24.7733 41.4555 24.08 42.1222 23.2C42.7888 22.2933 43.1222 21.2533 43.1222 20.08C43.1222 19.6533 43.0955 19.1467 43.0422 18.56C43.4155 18.5067 43.6822 18.48 43.8422 18.48C44.7222 18.48 45.4288 18.7333 45.9622 19.24C46.5222 19.7467 46.8022 20.4267 46.8022 21.28C46.8022 22.8533 46.3088 24.2533 45.3222 25.48C44.3355 26.7067 42.9622 27.6667 41.2022 28.36C39.4688 29.0267 37.4688 29.36 35.2022 29.36Z" fill="#1A560E"/>
<path d="M88.9981 29.36C88.1181 29.36 87.5181 28.96 87.1981 28.16L76.8781 1C77.0914 0.893333 77.3448 0.813333 77.6381 0.76C77.9314 0.68 78.1981 0.639999 78.4381 0.639999C79.1848 0.639999 79.8114 0.826666 80.3181 1.2C80.8514 1.54667 81.2381 2.04 81.4781 2.68L88.7981 23.12L88.0781 25.16L88.3981 25.28L96.5181 2.68C96.7581 2.04 97.1448 1.54667 97.6781 1.2C98.2115 0.826666 98.8514 0.639999 99.5981 0.639999C100.051 0.639999 100.571 0.759999 101.158 1L90.8381 28.16C90.7048 28.5333 90.4781 28.8267 90.1581 29.04C89.8381 29.2533 89.4514 29.36 88.9981 29.36Z" fill="#1A560E"/>
<path d="M104.569 3.76C104.569 2.77333 104.889 2.01333 105.529 1.48C106.195 0.92 107.129 0.639999 108.329 0.639999V26.24C108.329 27.2267 107.995 28 107.329 28.56C106.689 29.0933 105.769 29.36 104.569 29.36V3.76Z" fill="#1A560E"/>
<path d="M114.745 2.76C114.745 2.25333 114.932 1.84 115.305 1.52C115.679 1.17333 116.132 1 116.665 1H134.385C134.385 2.12 134.159 2.94667 133.705 3.48C133.252 4.01333 132.545 4.28 131.585 4.28H118.505V13.24H129.705C129.705 14.36 129.479 15.1867 129.025 15.72C128.572 16.2533 127.879 16.52 126.945 16.52H118.505V25.72H132.425C133.359 25.72 134.052 25.9867 134.505 26.52C134.959 27.0533 135.185 27.88 135.185 29H116.665C116.132 29 115.679 28.84 115.305 28.52C114.932 28.1733 114.745 27.7467 114.745 27.24V2.76Z" fill="#1A560E"/>
<path d="M147.969 29.36C147.009 29.36 146.222 29.1333 145.609 28.68C144.995 28.2 144.582 27.5333 144.369 26.68L137.769 1C138.169 0.759999 138.675 0.639999 139.289 0.639999C140.062 0.639999 140.715 0.84 141.249 1.24C141.782 1.61333 142.129 2.13333 142.289 2.8L146.649 21.76L146.009 24.12L146.249 24.2L152.689 1.88C152.795 1.48 152.995 1.17333 153.289 0.96C153.609 0.746666 153.982 0.639999 154.409 0.639999C154.809 0.639999 155.169 0.746666 155.489 0.96C155.809 1.17333 156.022 1.48 156.129 1.88L161.689 21.92L161.129 24.36L161.369 24.44L166.529 2.8C166.689 2.13333 167.022 1.61333 167.529 1.24C168.062 0.84 168.702 0.639999 169.449 0.639999C170.062 0.639999 170.595 0.759999 171.049 1L164.449 26.68C164.235 27.5333 163.809 28.2 163.169 28.68C162.555 29.1333 161.769 29.36 160.809 29.36L153.969 5.16L153.729 5.24L154.249 7.12L147.969 29.36Z" fill="#1A560E"/>
<path fill-rule="evenodd" clip-rule="evenodd" d="M50.0246 5.35922C50.0246 9.91252 50.1272 10.6592 50.9751 12.2801C51.5474 13.3744 53.3448 14.8574 54.3306 15.0486L55.043 15.1868L55.1712 14.0694C55.5483 10.7787 58.0783 7.78708 60.9456 7.24078C61.9416 7.05107 61.9895 6.84411 61.3906 5.32059C60.8521 3.95108 59.7395 2.62286 58.4566 1.81811C57.4883 1.2106 57.267 1.17659 53.7326 1.09036L50.0246 1V5.35922ZM66.7871 1.27424C65.1009 1.76734 63.3669 3.45676 62.634 5.32059C62.0353 6.84338 62.0832 7.05082 63.079 7.24345C64.279 7.47542 65.5871 8.19419 66.581 9.168C67.5941 10.1605 68.6705 12.4728 68.8506 14.0436L68.9816 15.1868L69.6798 15.0512C71.2341 14.7498 73.1791 12.6039 73.7651 10.5443C73.9084 10.041 74 8.02585 74 5.38253V1.04639L70.6983 1.07117C68.8825 1.08502 67.1223 1.17635 66.7871 1.27424ZM60.4013 11.4312C59.4865 11.9886 58.5696 13.3871 58.3489 14.5613C57.8438 17.2488 59.6944 19.9925 62.0123 19.9925C65.1543 19.9925 66.8437 15.5431 64.8176 12.6044C63.7314 11.0289 61.8713 10.5348 60.4013 11.4312ZM53.3771 16.3452C52.1027 17.0994 51.1815 18.1303 50.6319 19.4163C50.1528 20.538 50.1229 20.8487 50.0632 25.3002L50 30L53.6189 29.913C57.0154 29.8312 57.306 29.787 58.355 29.1938C59.6918 28.4376 60.8188 27.1322 61.3906 25.6782C61.9895 24.1547 61.9416 23.9477 60.9456 23.758C58.0694 23.21 55.5507 20.2417 55.174 16.9554C55.0275 15.677 54.6961 15.5645 53.3771 16.3452ZM68.8534 16.9294C68.4737 20.2426 65.9658 23.2081 63.079 23.758C62.083 23.9477 62.035 24.1547 62.634 25.6782C63.1725 27.0477 64.2851 28.3759 65.568 29.1807C66.5363 29.7882 66.7576 29.8222 70.2919 29.9084L74 29.9988V25.6396C74 22.9785 73.9086 20.9585 73.7651 20.4545C73.1791 18.3948 71.2341 16.249 69.6798 15.9476C68.9824 15.8123 68.9814 15.8135 68.8534 16.9294Z" fill="#64CB4F"/>
</svg>
